P3
# automatically generated plain ppm file
5 3
255
0 204 153  0 204 153  0 204 153  0 204 153  0 204 153  

8 204 153  8 204 153  8 204 153  8 204 153  8 204 153  

17 204 153  17 204 153  17 204 153  17 204 153  17 204 153  
