P3
# automatically generated plain ppm file
 30 50
255
0 204 153 0 204 153 0 204 153 0 204 153 0 204 153 0 204 153 0 204 153 0 204 153 0 204 153 0 204 153 0 204 153 0 204 153 0 204 153 0 204 153 0 204 153 0 204 153 0 204 153 0 204 153 0 204 153 0 204 153 0 204 153 0 204 153 0 204 153 0 204 153 0 204 153 0 204 153 0 204 153 0 204 153 0 204 153 0 204 153 
8 204 153 8 204 153 8 204 153 8 204 153 8 204 153 8 204 153 8 204 153 8 204 153 8 204 153 8 204 153 8 204 153 8 204 153 8 204 153 8 204 153 8 204 153 8 204 153 8 204 153 8 204 153 8 204 153 8 204 153 8 204 153 8 204 153 8 204 153 8 204 153 8 204 153 8 204 153 8 204 153 8 204 153 8 204 153 8 204 153 
17 204 153 17 204 153 17 204 153 17 204 153 17 204 153 17 204 153 17 204 153 17 204 153 17 204 153 17 204 153 17 204 153 17 204 153 17 204 153 17 204 153 17 204 153 17 204 153 17 204 153 17 204 153 17 204 153 17 204 153 17 204 153 17 204 153 17 204 153 17 204 153 17 204 153 17 204 153 17 204 153 17 204 153 17 204 153 17 204 153 
25 204 153 25 204 153 25 204 153 25 204 153 25 204 153 25 204 153 25 204 153 25 204 153 25 204 153 25 204 153 25 204 153 25 204 153 25 204 153 25 204 153 25 204 153 25 204 153 25 204 153 25 204 153 25 204 153 25 204 153 25 204 153 25 204 153 25 204 153 25 204 153 25 204 153 25 204 153 25 204 153 25 204 153 25 204 153 25 204 153 
34 204 153 34 204 153 34 204 153 34 204 153 34 204 153 34 204 153 34 204 153 34 204 153 34 204 153 34 204 153 34 204 153 34 204 153 34 204 153 34 204 153 34 204 153 34 204 153 34 204 153 34 204 153 34 204 153 34 204 153 34 204 153 34 204 153 34 204 153 34 204 153 34 204 153 34 204 153 34 204 153 34 204 153 34 204 153 34 204 153 
42 204 153 42 204 153 42 204 153 42 204 153 42 204 153 42 204 153 42 204 153 42 204 153 42 204 153 42 204 153 42 204 153 42 204 153 42 204 153 42 204 153 42 204 153 42 204 153 42 204 153 42 204 153 42 204 153 42 204 153 42 204 153 42 204 153 42 204 153 42 204 153 42 204 153 42 204 153 42 204 153 42 204 153 42 204 153 42 204 153 
51 204 153 51 204 153 51 204 153 51 204 153 51 204 153 51 204 153 51 204 153 51 204 153 51 204 153 51 204 153 51 204 153 51 204 153 51 204 153 51 204 153 51 204 153 51 204 153 51 204 153 51 204 153 51 204 153 51 204 153 51 204 153 51 204 153 51 204 153 51 204 153 51 204 153 51 204 153 51 204 153 51 204 153 51 204 153 51 204 153 
59 204 153 59 204 153 59 204 153 59 204 153 59 204 153 59 204 153 59 204 153 59 204 153 59 204 153 59 204 153 59 204 153 59 204 153 59 204 153 59 204 153 59 204 153 59 204 153 59 204 153 59 204 153 59 204 153 59 204 153 59 204 153 59 204 153 59 204 153 59 204 153 59 204 153 59 204 153 59 204 153 59 204 153 59 204 153 59 204 153 
68 204 153 68 204 153 68 204 153 68 204 153 68 204 153 68 204 153 68 204 153 68 204 153 68 204 153 68 204 153 68 204 153 68 204 153 68 204 153 68 204 153 68 204 153 68 204 153 68 204 153 68 204 153 68 204 153 68 204 153 68 204 153 68 204 153 68 204 153 68 204 153 68 204 153 68 204 153 68 204 153 68 204 153 68 204 153 68 204 153 
76 204 153 76 204 153 76 204 153 76 204 153 76 204 153 76 204 153 76 204 153 76 204 153 76 204 153 76 204 153 76 204 153 76 204 153 76 204 153 76 204 153 76 204 153 76 204 153 76 204 153 76 204 153 76 204 153 76 204 153 76 204 153 76 204 153 76 204 153 76 204 153 76 204 153 76 204 153 76 204 153 76 204 153 76 204 153 76 204 153 
85 204 153 85 204 153 85 204 153 85 204 153 85 204 153 85 204 153 85 204 153 85 204 153 85 204 153 85 204 153 85 204 153 85 204 153 85 204 153 85 204 153 85 204 153 85 204 153 85 204 153 85 204 153 85 204 153 85 204 153 85 204 153 85 204 153 85 204 153 85 204 153 85 204 153 85 204 153 85 204 153 85 204 153 85 204 153 85 204 153 
93 204 153 93 204 153 93 204 153 93 204 153 93 204 153 93 204 153 93 204 153 93 204 153 93 204 153 93 204 153 93 204 153 93 204 153 93 204 153 93 204 153 93 204 153 93 204 153 93 204 153 93 204 153 93 204 153 93 204 153 93 204 153 93 204 153 93 204 153 93 204 153 93 204 153 93 204 153 93 204 153 93 204 153 93 204 153 93 204 153 
102 204 153 102 204 153 102 204 153 102 204 153 102 204 153 102 204 153 102 204 153 102 204 153 102 204 153 102 204 153 102 204 153 102 204 153 102 204 153 102 204 153 102 204 153 102 204 153 102 204 153 102 204 153 102 204 153 102 204 153 102 204 153 102 204 153 102 204 153 102 204 153 102 204 153 102 204 153 102 204 153 102 204 153 102 204 153 102 204 153 
110 204 153 110 204 153 110 204 153 110 204 153 110 204 153 110 204 153 110 204 153 110 204 153 110 204 153 110 204 153 110 204 153 110 204 153 110 204 153 110 204 153 110 204 153 110 204 153 110 204 153 110 204 153 110 204 153 110 204 153 110 204 153 110 204 153 110 204 153 110 204 153 110 204 153 110 204 153 110 204 153 110 204 153 110 204 153 110 204 153 
119 204 153 119 204 153 119 204 153 119 204 153 119 204 153 119 204 153 119 204 153 119 204 153 119 204 153 119 204 153 119 204 153 119 204 153 119 204 153 119 204 153 119 204 153 119 204 153 119 204 153 119 204 153 119 204 153 119 204 153 119 204 153 119 204 153 119 204 153 119 204 153 119 204 153 119 204 153 119 204 153 119 204 153 119 204 153 119 204 153 
128 204 153 128 204 153 128 204 153 128 204 153 128 204 153 128 204 153 128 204 153 128 204 153 128 204 153 128 204 153 128 204 153 128 204 153 128 204 153 128 204 153 128 204 153 128 204 153 128 204 153 128 204 153 128 204 153 128 204 153 128 204 153 128 204 153 128 204 153 128 204 153 128 204 153 128 204 153 128 204 153 128 204 153 128 204 153 128 204 153 
136 204 153 136 204 153 136 204 153 136 204 153 136 204 153 136 204 153 136 204 153 136 204 153 136 204 153 136 204 153 136 204 153 136 204 153 136 204 153 136 204 153 136 204 153 136 204 153 136 204 153 136 204 153 136 204 153 136 204 153 136 204 153 136 204 153 136 204 153 136 204 153 136 204 153 136 204 153 136 204 153 136 204 153 136 204 153 136 204 153 
145 204 153 145 204 153 145 204 153 145 204 153 145 204 153 145 204 153 145 204 153 145 204 153 145 204 153 145 204 153 145 204 153 145 204 153 145 204 153 145 204 153 145 204 153 145 204 153 145 204 153 145 204 153 145 204 153 145 204 153 145 204 153 145 204 153 145 204 153 145 204 153 145 204 153 145 204 153 145 204 153 145 204 153 145 204 153 145 204 153 
153 204 153 153 204 153 153 204 153 153 204 153 153 204 153 153 204 153 153 204 153 153 204 153 153 204 153 153 204 153 153 204 153 153 204 153 153 204 153 153 204 153 153 204 153 153 204 153 153 204 153 153 204 153 153 204 153 153 204 153 153 204 153 153 204 153 153 204 153 153 204 153 153 204 153 153 204 153 153 204 153 153 204 153 153 204 153 153 204 153 
162 204 153 162 204 153 162 204 153 162 204 153 162 204 153 162 204 153 162 204 153 162 204 153 162 204 153 162 204 153 162 204 153 162 204 153 162 204 153 162 204 153 162 204 153 162 204 153 162 204 153 162 204 153 162 204 153 162 204 153 162 204 153 162 204 153 162 204 153 162 204 153 162 204 153 162 204 153 162 204 153 162 204 153 162 204 153 162 204 153 
170 204 153 170 204 153 170 204 153 170 204 153 170 204 153 170 204 153 170 204 153 170 204 153 170 204 153 170 204 153 170 204 153 170 204 153 170 204 153 170 204 153 170 204 153 170 204 153 170 204 153 170 204 153 170 204 153 170 204 153 170 204 153 170 204 153 170 204 153 170 204 153 170 204 153 170 204 153 170 204 153 170 204 153 170 204 153 170 204 153 
179 204 153 179 204 153 179 204 153 179 204 153 179 204 153 179 204 153 179 204 153 179 204 153 179 204 153 179 204 153 179 204 153 179 204 153 179 204 153 179 204 153 179 204 153 179 204 153 179 204 153 179 204 153 179 204 153 179 204 153 179 204 153 179 204 153 179 204 153 179 204 153 179 204 153 179 204 153 179 204 153 179 204 153 179 204 153 179 204 153 
187 204 153 187 204 153 187 204 153 187 204 153 187 204 153 187 204 153 187 204 153 187 204 153 187 204 153 187 204 153 187 204 153 187 204 153 187 204 153 187 204 153 187 204 153 187 204 153 187 204 153 187 204 153 187 204 153 187 204 153 187 204 153 187 204 153 187 204 153 187 204 153 187 204 153 187 204 153 187 204 153 187 204 153 187 204 153 187 204 153 
196 204 153 196 204 153 196 204 153 196 204 153 196 204 153 196 204 153 196 204 153 196 204 153 196 204 153 196 204 153 196 204 153 196 204 153 196 204 153 196 204 153 196 204 153 196 204 153 196 204 153 196 204 153 196 204 153 196 204 153 196 204 153 196 204 153 196 204 153 196 204 153 196 204 153 196 204 153 196 204 153 196 204 153 196 204 153 196 204 153 
204 204 153 204 204 153 204 204 153 204 204 153 204 204 153 204 204 153 204 204 153 204 204 153 204 204 153 204 204 153 204 204 153 204 204 153 204 204 153 204 204 153 204 204 153 204 204 153 204 204 153 204 204 153 204 204 153 204 204 153 204 204 153 204 204 153 204 204 153 204 204 153 204 204 153 204 204 153 204 204 153 204 204 153 204 204 153 204 204 153 
213 204 153 213 204 153 213 204 153 213 204 153 213 204 153 213 204 153 213 204 153 213 204 153 213 204 153 213 204 153 213 204 153 213 204 153 213 204 153 213 204 153 213 204 153 213 204 153 213 204 153 213 204 153 213 204 153 213 204 153 213 204 153 213 204 153 213 204 153 213 204 153 213 204 153 213 204 153 213 204 153 213 204 153 213 204 153 213 204 153 
221 204 153 221 204 153 221 204 153 221 204 153 221 204 153 221 204 153 221 204 153 221 204 153 221 204 153 221 204 153 221 204 153 221 204 153 221 204 153 221 204 153 221 204 153 221 204 153 221 204 153 221 204 153 221 204 153 221 204 153 221 204 153 221 204 153 221 204 153 221 204 153 221 204 153 221 204 153 221 204 153 221 204 153 221 204 153 221 204 153 
230 204 153 230 204 153 230 204 153 230 204 153 230 204 153 230 204 153 230 204 153 230 204 153 230 204 153 230 204 153 230 204 153 230 204 153 230 204 153 230 204 153 230 204 153 230 204 153 230 204 153 230 204 153 230 204 153 230 204 153 230 204 153 230 204 153 230 204 153 230 204 153 230 204 153 230 204 153 230 204 153 230 204 153 230 204 153 230 204 153 
238 204 153 238 204 153 238 204 153 238 204 153 238 204 153 238 204 153 238 204 153 238 204 153 238 204 153 238 204 153 238 204 153 238 204 153 238 204 153 238 204 153 238 204 153 238 204 153 238 204 153 238 204 153 238 204 153 238 204 153 238 204 153 238 204 153 238 204 153 238 204 153 238 204 153 238 204 153 238 204 153 238 204 153 238 204 153 238 204 153 
247 204 153 247 204 153 247 204 153 247 204 153 247 204 153 247 204 153 247 204 153 247 204 153 247 204 153 247 204 153 247 204 153 247 204 153 247 204 153 247 204 153 247 204 153 247 204 153 247 204 153 247 204 153 247 204 153 247 204 153 247 204 153 247 204 153 247 204 153 247 204 153 247 204 153 247 204 153 247 204 153 247 204 153 247 204 153 247 204 153 
255 204 153 255 204 153 255 204 153 255 204 153 255 204 153 255 204 153 255 204 153 255 204 153 255 204 153 255 204 153 255 204 153 255 204 153 255 204 153 255 204 153 255 204 153 255 204 153 255 204 153 255 204 153 255 204 153 255 204 153 255 204 153 255 204 153 255 204 153 255 204 153 255 204 153 255 204 153 255 204 153 255 204 153 255 204 153 255 204 153 
255 204 153 255 204 153 255 204 153 255 204 153 255 204 153 255 204 153 255 204 153 255 204 153 255 204 153 255 204 153 255 204 153 255 204 153 255 204 153 255 204 153 255 204 153 255 204 153 255 204 153 255 204 153 255 204 153 255 204 153 255 204 153 255 204 153 255 204 153 255 204 153 255 204 153 255 204 153 255 204 153 255 204 153 255 204 153 255 204 153 
255 204 153 255 204 153 255 204 153 255 204 153 255 204 153 255 204 153 255 204 153 255 204 153 255 204 153 255 204 153 255 204 153 255 204 153 255 204 153 255 204 153 255 204 153 255 204 153 255 204 153 255 204 153 255 204 153 255 204 153 255 204 153 255 204 153 255 204 153 255 204 153 255 204 153 255 204 153 255 204 153 255 204 153 255 204 153 255 204 153 
255 204 153 255 204 153 255 204 153 255 204 153 255 204 153 255 204 153 255 204 153 255 204 153 255 204 153 255 204 153 255 204 153 255 204 153 255 204 153 255 204 153 255 204 153 255 204 153 255 204 153 255 204 153 255 204 153 255 204 153 255 204 153 255 204 153 255 204 153 255 204 153 255 204 153 255 204 153 255 204 153 255 204 153 255 204 153 255 204 153 
255 204 153 255 204 153 255 204 153 255 204 153 255 204 153 255 204 153 255 204 153 255 204 153 255 204 153 255 204 153 255 204 153 255 204 153 255 204 153 255 204 153 255 204 153 255 204 153 255 204 153 255 204 153 255 204 153 255 204 153 255 204 153 255 204 153 255 204 153 255 204 153 255 204 153 255 204 153 255 204 153 255 204 153 255 204 153 255 204 153 
255 204 153 255 204 153 255 204 153 255 204 153 255 204 153 255 204 153 255 204 153 255 204 153 255 204 153 255 204 153 255 204 153 255 204 153 255 204 153 255 204 153 255 204 153 255 204 153 255 204 153 255 204 153 255 204 153 255 204 153 255 204 153 255 204 153 255 204 153 255 204 153 255 204 153 255 204 153 255 204 153 255 204 153 255 204 153 255 204 153 
255 204 153 255 204 153 255 204 153 255 204 153 255 204 153 255 204 153 255 204 153 255 204 153 255 204 153 255 204 153 255 204 153 255 204 153 255 204 153 255 204 153 255 204 153 255 204 153 255 204 153 255 204 153 255 204 153 255 204 153 255 204 153 255 204 153 255 204 153 255 204 153 255 204 153 255 204 153 255 204 153 255 204 153 255 204 153 255 204 153 
255 204 153 255 204 153 255 204 153 255 204 153 255 204 153 255 204 153 255 204 153 255 204 153 255 204 153 255 204 153 255 204 153 255 204 153 255 204 153 255 204 153 255 204 153 255 204 153 255 204 153 255 204 153 255 204 153 255 204 153 255 204 153 255 204 153 255 204 153 255 204 153 255 204 153 255 204 153 255 204 153 255 204 153 255 204 153 255 204 153 
255 204 153 255 204 153 255 204 153 255 204 153 255 204 153 255 204 153 255 204 153 255 204 153 255 204 153 255 204 153 255 204 153 255 204 153 255 204 153 255 204 153 255 204 153 255 204 153 255 204 153 255 204 153 255 204 153 255 204 153 255 204 153 255 204 153 255 204 153 255 204 153 255 204 153 255 204 153 255 204 153 255 204 153 255 204 153 255 204 153 
255 204 153 255 204 153 255 204 153 255 204 153 255 204 153 255 204 153 255 204 153 255 204 153 255 204 153 255 204 153 255 204 153 255 204 153 255 204 153 255 204 153 255 204 153 255 204 153 255 204 153 255 204 153 255 204 153 255 204 153 255 204 153 255 204 153 255 204 153 255 204 153 255 204 153 255 204 153 255 204 153 255 204 153 255 204 153 255 204 153 
255 204 153 255 204 153 255 204 153 255 204 153 255 204 153 255 204 153 255 204 153 255 204 153 255 204 153 255 204 153 255 204 153 255 204 153 255 204 153 255 204 153 255 204 153 255 204 153 255 204 153 255 204 153 255 204 153 255 204 153 255 204 153 255 204 153 255 204 153 255 204 153 255 204 153 255 204 153 255 204 153 255 204 153 255 204 153 255 204 153 
255 204 153 255 204 153 255 204 153 255 204 153 255 204 153 255 204 153 255 204 153 255 204 153 255 204 153 255 204 153 255 204 153 255 204 153 255 204 153 255 204 153 255 204 153 255 204 153 255 204 153 255 204 153 255 204 153 255 204 153 255 204 153 255 204 153 255 204 153 255 204 153 255 204 153 255 204 153 255 204 153 255 204 153 255 204 153 255 204 153 
255 204 153 255 204 153 255 204 153 255 204 153 255 204 153 255 204 153 255 204 153 255 204 153 255 204 153 255 204 153 255 204 153 255 204 153 255 204 153 255 204 153 255 204 153 255 204 153 255 204 153 255 204 153 255 204 153 255 204 153 255 204 153 255 204 153 255 204 153 255 204 153 255 204 153 255 204 153 255 204 153 255 204 153 255 204 153 255 204 153 
255 204 153 255 204 153 255 204 153 255 204 153 255 204 153 255 204 153 255 204 153 255 204 153 255 204 153 255 204 153 255 204 153 255 204 153 255 204 153 255 204 153 255 204 153 255 204 153 255 204 153 255 204 153 255 204 153 255 204 153 255 204 153 255 204 153 255 204 153 255 204 153 255 204 153 255 204 153 255 204 153 255 204 153 255 204 153 255 204 153 
255 204 153 255 204 153 255 204 153 255 204 153 255 204 153 255 204 153 255 204 153 255 204 153 255 204 153 255 204 153 255 204 153 255 204 153 255 204 153 255 204 153 255 204 153 255 204 153 255 204 153 255 204 153 255 204 153 255 204 153 255 204 153 255 204 153 255 204 153 255 204 153 255 204 153 255 204 153 255 204 153 255 204 153 255 204 153 255 204 153 
255 204 153 255 204 153 255 204 153 255 204 153 255 204 153 255 204 153 255 204 153 255 204 153 255 204 153 255 204 153 255 204 153 255 204 153 255 204 153 255 204 153 255 204 153 255 204 153 255 204 153 255 204 153 255 204 153 255 204 153 255 204 153 255 204 153 255 204 153 255 204 153 255 204 153 255 204 153 255 204 153 255 204 153 255 204 153 255 204 153 
255 204 153 255 204 153 255 204 153 255 204 153 255 204 153 255 204 153 255 204 153 255 204 153 255 204 153 255 204 153 255 204 153 255 204 153 255 204 153 255 204 153 255 204 153 255 204 153 255 204 153 255 204 153 255 204 153 255 204 153 255 204 153 255 204 153 255 204 153 255 204 153 255 204 153 255 204 153 255 204 153 255 204 153 255 204 153 255 204 153 
255 204 153 255 204 153 255 204 153 255 204 153 255 204 153 255 204 153 255 204 153 255 204 153 255 204 153 255 204 153 255 204 153 255 204 153 255 204 153 255 204 153 255 204 153 255 204 153 255 204 153 255 204 153 255 204 153 255 204 153 255 204 153 255 204 153 255 204 153 255 204 153 255 204 153 255 204 153 255 204 153 255 204 153 255 204 153 255 204 153 
255 204 153 255 204 153 255 204 153 255 204 153 255 204 153 255 204 153 255 204 153 255 204 153 255 204 153 255 204 153 255 204 153 255 204 153 255 204 153 255 204 153 255 204 153 255 204 153 255 204 153 255 204 153 255 204 153 255 204 153 255 204 153 255 204 153 255 204 153 255 204 153 255 204 153 255 204 153 255 204 153 255 204 153 255 204 153 255 204 153 
255 204 153 255 204 153 255 204 153 255 204 153 255 204 153 255 204 153 255 204 153 255 204 153 255 204 153 255 204 153 255 204 153 255 204 153 255 204 153 255 204 153 255 204 153 255 204 153 255 204 153 255 204 153 255 204 153 255 204 153 255 204 153 255 204 153 255 204 153 255 204 153 255 204 153 255 204 153 255 204 153 255 204 153 255 204 153 255 204 153 
